<svg xmlns="http://www.w3.org/2000/svg" xmlns:xlink="http://www.w3.org/1999/xlink" xmlns:krita="http://krita.org/namespaces/svg/krita" xmlns:sodipodi="http://sodipodi.sourceforge.net/DTD/sodipodi-0.dtd" width="61.44pt" height="61.44pt" viewBox="0 0 61.44 61.44"><defs/><g id="group0" transform="matrix(0.119998526183274 0 0 0.124419567731105 0.000312858386301684 -1.13134712937893)" fill="none"><path id="shape0" transform="translate(-0.00260718524016609, 9.09300000000003)" fill="#000" stroke-opacity="0" stroke="#000" stroke-width="0" stroke-linecap="square" stroke-linejoin="bevel" d="M370.217 493.813C358.733 493.813 347.279 490.969 337.092 485.625l-77.797-40.891C257.279 443.656 254.748 443.656 252.717 444.734L174.92 485.625C164.748 490.969 153.295 493.813 141.811 493.813 126.67 493.813 112.202 489.094 99.9666 480.219c-22.047-16.047-32.906-42.703-28.328-69.578l14.891-86.672C86.9206 321.688 86.1546 319.375 84.4826 317.735l-62.938-61.344c-19.53099-19.047-26.43799-47-18.01599-72.953C11.9816 157.469 34.0126 138.907 60.9976 135l86.9844-12.641C150.279 122.031 152.263 120.593 153.295 118.5l38.906-78.828C204.248 15.219 228.701.0 256.014.0c27.297.0 51.75 15.219 63.813 39.688l38.906 78.813C359.764 120.595 361.749 122.032 364.046 122.36l86.969 12.641C478.015 138.907 500.031 157.47 508.468 183.407 516.906 209.391 509.999 237.345 490.468 256.391L427.515 317.75C425.859 319.375 425.109 321.688 425.499 324l14.859 86.609C444.952 437.531 434.092 464.187 412.03 480.218 399.811 489.095 385.357 493.813 370.217 493.813zM256.014 379.782C267.498 379.782 278.952 382.626 289.123 387.97l77.813 40.906C368.889 429.907 371.139 430.689 374.327 428.345 376.53 426.751 377.608 424.095 377.14 421.439l-14.844-86.625C358.343 311.72 365.999 288.189 382.749 271.845l62.953-61.375C447.64 208.595 448.311 205.814 447.483 203.22 446.67 200.72 444.436 198.845 441.811 198.47l-87-12.656c-23.203-3.375-43.234-17.938-53.594-38.938L262.311 68.063C259.92 63.204 252.092 63.219 249.702 68.032l-38.906 78.859c-10.359 20.984-30.391 35.547-53.563 38.922L70.2166 198.454C67.5756 198.845 65.3416 200.72 64.5136 203.251 63.6856 205.814 64.3726 208.595 66.3106 210.47l62.9534 61.359c16.766 16.359 24.406 39.891 20.469 62.969L134.858 421.47C134.405 424.095 135.483 426.751 137.671 428.345 140.89 430.673 143.124 429.908 145.093 428.876L222.89 387.97C233.061 382.626 244.514 379.782 256.014 379.782z" sodipodi:nodetypes="cccccccccccccccccccccccccccccccccccccccccccccccccccccc"/></g></svg>